HIERARCHY
ROOT hip
{
	OFFSET 0.000000 0.000000 0.000000 
	CHANNELS 6 Xposition Yposition Zposition Xrotation Zrotation Yrotation
	JOINT abdomen
	{
		OFFSET 0.000000 3.402643 0.000000 
		CHANNELS 3 Xrotation Zrotation Yrotation
		JOINT chest
		{
			OFFSET 0.000000 8.438565 -0.680529 
			CHANNELS 3 Xrotation Zrotation Yrotation
			JOINT neck
			{
				OFFSET 0.000000 10.207942 -0.272212 
				CHANNELS 3 Xrotation Zrotation Yrotation
				JOINT head
				{
					OFFSET 0.000000 3.130431 0.000000 
					CHANNELS 3 Xrotation Zrotation Yrotation
					End Site
					{
						OFFSET 0.000000 3.130435 0.000000 
					}
				}
			}
			JOINT lCollar
			{
				OFFSET 3.470700 6.669187 -0.816635 
				CHANNELS 3 Yrotation Zrotation Xrotation
				JOINT lShldr
				{
					OFFSET 3.198488 0.000000 0.000000 
					CHANNELS 3 Zrotation Yrotation Xrotation
					JOINT lForeArm
					{
						OFFSET 10.139888 0.000000 0.000000 
						CHANNELS 3 Yrotation Zrotation Xrotation
						JOINT lHand
						{
							OFFSET 8.370511 0.000000 0.000000 
							CHANNELS 3 Zrotation Yrotation Xrotation
							End Site
							{
								OFFSET 4.083176 0.000000 0.000000 
							}
						}
					}
				}
			}
			JOINT rCollar
			{
				OFFSET -3.470700 6.669187 -0.816635 
				CHANNELS 3 Yrotation Zrotation Xrotation
				JOINT rShldr
				{
					OFFSET -3.198488 0.000000 0.000000 
					CHANNELS 3 Zrotation Yrotation Xrotation
					JOINT rForeArm
					{
						OFFSET -10.139888 0.000000 0.000000 
						CHANNELS 3 Yrotation Zrotation Xrotation
						JOINT rHand
						{
							OFFSET -8.370511 0.000000 0.000000 
							CHANNELS 3 Zrotation Yrotation Xrotation
							End Site
							{
								OFFSET -4.083176 0.000000 0.000000 
							}
						}
					}
				}
			}
		}
	}
	JOINT lThigh
	{
		OFFSET 5.308129 -1.633274 1.361059 
		CHANNELS 3 Xrotation Zrotation Yrotation
		JOINT lShin
		{
			OFFSET -2.041588 -20.007561 0.000000 
			CHANNELS 3 Xrotation Zrotation Yrotation
			JOINT lFoot
			{
				OFFSET 0.000000 -19.190928 -1.224953 
				CHANNELS 3 Xrotation Yrotation Zrotation
				End Site
				{
					OFFSET 0.000000 -2.449906 4.627600 
				}
			}
		}
	}
	JOINT rThigh
	{
		OFFSET -5.308129 -1.633274 1.361059 
		CHANNELS 3 Xrotation Zrotation Yrotation
		JOINT rShin
		{
			OFFSET 2.041588 -20.007561 0.000000 
			CHANNELS 3 Xrotation Zrotation Yrotation
			JOINT rFoot
			{
				OFFSET 0.000000 -19.190928 -1.224953 
				CHANNELS 3 Xrotation Yrotation Zrotation
				End Site
				{
					OFFSET 0.000000 -2.449906 4.627600 
				}
			}
		}
	}
}
MOTION
Frames: 8
Frame Time: 0.033333
-18.178509 48.559021 -14.838678 -2.714188 0.046939 -88.399117 0.000000 0.000000 0.000000 1.498795 -2.311221 3.029605 6.624381 -1.666673 3.575545 1.635602 -4.284436 2.026777 3.663568 1.374019 2.076113 -65.781189 2.551455 18.969273 -36.967438 -5.434422 30.767841 -6.531070 5.665600 -3.657278 4.399078 8.576735 2.017022 54.060169 -5.290532 22.804541 45.380066 9.910831 22.420223 -0.167664 -6.693403 -3.559759 -2.418712 4.330792 -0.510944 22.358786 -2.679605 -40.537090 -18.040907 -1.469953 9.170396 -12.547706 -17.898485 -0.394288 9.048787 1.380065 41.376759 -5.830502 -0.597544 12.501904 
-18.684452 48.551781 -15.806985 -3.001743 -0.296632 -84.803375 0.000000 0.000000 0.000000 1.865030 -2.155984 2.599490 6.824119 -1.618025 3.526741 1.356808 -3.932801 2.143680 3.734767 1.621407 2.378372 -64.265800 3.849289 18.727947 -36.297424 -6.062155 28.003057 -8.352079 6.963977 -3.808447 4.085578 8.969502 2.315392 54.583023 -5.323307 23.297722 45.536476 9.829224 23.108908 -0.612623 -7.817411 -3.546343 -1.005006 5.466915 -0.527948 20.693138 -1.631658 -44.829082 -18.425285 -1.368173 8.257579 -13.934486 -17.781626 -1.284308 15.903519 2.278251 37.540932 -7.588535 -0.568205 8.791713 
-19.161348 48.764420 -16.785028 -2.596692 -1.333733 -81.707596 0.000000 0.000000 0.000000 2.805726 -1.258538 2.529759 7.495995 -0.954982 3.750455 0.888415 -4.595459 2.439467 3.927212 2.026998 3.167649 -63.737823 4.126728 17.021078 -34.306622 -5.671577 27.514843 -6.221869 7.001395 -3.742208 4.145974 10.400972 3.086613 53.946888 -4.849175 24.360512 45.364681 9.768752 23.706066 0.995363 -8.851900 -3.636734 1.872652 7.178021 0.157669 16.794922 -0.646628 -47.533119 -18.014679 -0.990182 6.111659 -11.404423 -16.530407 -1.904883 16.044718 2.438851 34.903557 -7.915904 -0.515896 7.634154 
-19.585886 48.879250 -17.672932 -2.102677 -1.000962 -77.402397 0.000000 0.000000 0.000000 2.645882 -0.341640 1.738309 7.391519 -0.019503 3.105469 0.334044 -5.014164 2.655980 2.832343 3.461818 2.969510 -64.868004 5.477078 15.255624 -34.265678 -4.569819 28.391735 -5.728384 7.048175 -3.731383 3.563508 11.292678 2.870398 52.545582 -4.023837 25.315033 45.682064 10.875856 24.002054 0.955761 -8.697825 -3.629613 2.254353 8.283740 -0.356319 14.078853 0.747278 -47.715420 -18.101295 -0.544797 3.500460 -10.719389 -15.180512 -1.919065 17.089670 2.363323 30.906391 -8.787263 -0.494482 6.587536 
-19.905933 49.038471 -18.573616 -2.395181 0.180711 -73.194298 0.000000 0.000000 0.000000 1.957511 -0.312454 0.986313 7.349504 0.136598 2.412126 -0.444329 -4.253560 2.565304 2.087680 3.945313 2.327803 -65.711662 6.956389 13.934506 -35.397938 -3.687233 27.831087 -5.496080 7.842187 -3.780836 3.170696 11.027510 2.223687 52.172482 -4.240473 25.598795 45.829620 10.906588 23.746847 1.371005 -8.476430 -3.651552 2.196477 8.433915 -0.906923 10.224665 0.908257 -45.238113 -16.757597 -0.037483 0.222475 -10.953250 -15.335809 -3.306041 18.320021 3.271509 27.906778 -9.213811 -0.364497 4.955075 
-20.155451 49.203823 -19.445051 -2.714920 1.406071 -68.765053 0.000000 0.000000 0.000000 1.414151 -0.390621 0.273431 7.106576 0.253811 1.572293 -0.263219 -3.122821 2.141346 1.461548 4.433318 1.820893 -66.804817 7.621641 13.487627 -36.447811 -3.212444 27.226526 -5.452543 8.099379 -3.787854 2.568856 10.774291 1.725786 51.424465 -4.411973 25.611368 45.755611 10.785667 23.284903 1.433765 -8.267303 -3.637606 -0.917194 8.054460 -1.798117 12.859759 1.022810 -42.318600 -15.085905 0.076090 -0.629815 -10.963745 -15.688017 -4.671489 18.909035 4.044590 24.846464 -9.476996 -0.274694 3.761664 
-20.314123 49.367992 -20.257547 -2.777622 1.962223 -64.445038 0.000000 0.000000 0.000000 1.455258 -0.029296 -0.351567 7.214977 0.605417 0.752014 -1.012711 -2.079333 1.533965 0.810661 5.097452 1.871514 -67.889496 7.103917 13.909323 -37.053898 -3.326966 26.061077 -5.302279 8.196163 -3.782804 2.175052 11.124541 1.739532 50.130215 -4.452255 24.953396 45.388309 10.538067 23.278105 0.433375 -7.702889 -3.591150 -4.526208 7.668328 -1.336269 16.703413 -0.451047 -34.992279 -12.702496 0.155155 -1.479920 -10.133727 -15.345922 -5.386576 18.523685 4.209188 21.675632 -9.530218 -0.263899 3.335984 
-20.349392 49.490166 -21.018976 -2.919074 3.061783 -60.662296 0.000000 0.000000 0.000000 1.395180 0.156245 -0.478514 6.620575 0.986285 0.537198 -1.040880 -1.786548 1.436067 0.701350 5.376056 1.794635 -68.993385 5.501653 15.359089 -37.433079 -3.907331 24.894527 -5.172449 8.281099 -3.790301 2.345402 11.701019 1.632131 47.909664 -4.758139 24.029613 45.089672 10.282446 22.369463 -0.244517 -7.021123 -3.556562 -7.893299 6.888642 -0.939175 19.103964 -1.868960 -27.309160 -9.984530 0.221759 -2.571935 -10.164505 -16.139324 -7.205981 18.626078 5.517872 19.825487 -9.349582 -0.129835 2.137085 
